<svg width="127" height="33" viewBox="0 0 127 33" fill="none" xmlns="http://www.w3.org/2000/svg">
<g clip-path="url(#clip0_98_969)">
<path d="M15.4112 29.4412H3.86091V10.7711H0V32.9977H15.4112V29.4412Z" fill="#2B2B76"/>
<path d="M35.6888 10.7711H19.3975V14.2642H23.2584H35.6888V10.7711Z" fill="#3E6DB5"/>
<path d="M35.8463 29.5045H23.2584V23.5677H34.276V20.0417H23.2584H19.3975V32.9977H35.8463V29.5045Z" fill="#2B2B76"/>
<path d="M52.2601 20.7305C54.0412 24.9406 55.1506 27.6278 57.3787 32.9977H61.4596L54.9792 17.9941C54.1223 18.8023 53.2908 19.6341 52.4825 20.4915C52.4084 20.5712 52.3319 20.6508 52.2578 20.7305H52.2601Z" fill="#2B2B76"/>
<path d="M50.8242 17.3521L51.9336 19.9621C52.816 19.0249 53.7263 18.1206 54.6573 17.249L53.6336 14.8781C52.6771 15.6746 51.7391 16.4993 50.8242 17.3545V17.3521Z" fill="#2B2B76"/>
<path d="M38.5463 32.9977H42.5021C45.1401 28.148 48.3248 23.7903 51.9355 19.9621C52.818 19.0249 53.7282 18.1206 54.6592 17.249C73.211 -0.116156 101.182 -4.75499 124.857 7.56839C101.187 -5.06659 73.1856 -1.37661 53.6332 14.8757C52.6767 15.6723 51.7387 16.497 50.8238 17.3521C49.7793 18.3291 48.7648 19.3412 47.7782 20.3955C48.3549 19.0226 49.0451 17.3873 49.9391 15.281L50.5042 16.6071C51.3658 15.8082 52.2482 15.035 53.1492 14.2853C53.2047 14.2385 53.2603 14.194 53.3159 14.1471L51.7896 10.6141H48.2113L38.5439 33L38.5463 32.9977Z" fill="#3E6DB5"/>
<path d="M65.2256 32.9977H69.0865V25.8543H73.45C78.3161 25.8543 82.2395 23.2186 82.2395 18.2658V18.2026C82.2395 13.7254 79.0387 10.7734 73.89 10.7734H65.2256V33V32.9977ZM69.0865 22.3283V14.3275H73.5751C76.4632 14.3275 78.3161 15.6606 78.3161 18.2963V18.3595C78.3161 20.6766 76.4956 22.3283 73.5751 22.3283H69.0865Z" fill="#2B2B76"/>
<path d="M127 10.6117H124.332L118.4 12.5165L119.216 15.691L123.172 14.5805V32.9977H127V10.6117Z" fill="#3E6DB5"/>
<path d="M110.354 32.9977H114.032V28.0472H117.15V24.8633H114.032V10.7711H110.76L98.635 25.2733L96.3166 28.0472H110.354V32.9977ZM95.3809 29.1648L92.1777 32.9977H96.5088L99.654 29.1648H95.3809ZM103.184 24.8633L110.352 16.1315V24.8633H103.184Z" fill="#3E6DB5"/>
<path fill-rule="evenodd" clip-rule="evenodd" d="M100.571 28.0472H110.354V32.9977H114.032V28.0472H117.15V24.8633H114.032V10.7711H110.759L98.6348 25.2733L96.3164 28.0472H100.573H100.571ZM103.184 24.8633L110.352 16.1315V24.8633H103.184Z" fill="#2B2B76"/>
</g>
<defs>
<clipPath id="clip0_98_969">
<rect width="127" height="33" fill="white"/>
</clipPath>
</defs>
</svg>
