<svg width="16" height="16" viewBox="0 0 16 16" fill="none" xmlns="http://www.w3.org/2000/svg">
<path d="M14.5893 4H13.5481L11.2334 4.74331L11.5516 5.98216L13.0953 5.54879V12.736H14.5893V4Z" fill="#3E6DB5"/>
<path d="M8.09331 12.7358H9.5286V10.8039H10.7452V9.56142H9.5286V4.06201H8.25148L3.5199 9.72142L2.61516 10.8039H8.09331V12.7358ZM2.25001 11.24L1 12.7358H2.69018L3.91758 11.24H2.25001ZM5.29503 9.56142L8.09241 6.15389V9.56142H5.29503Z" fill="#3E6DB5"/>
<path fill-rule="evenodd" clip-rule="evenodd" d="M4.27558 10.8039H8.09339V12.7358H9.52868V10.8039H10.7452V9.56142H9.52868V4.06201H8.25156L3.51998 9.72142L2.61523 10.8039H4.27649H4.27558ZM5.29511 9.56142L8.09248 6.15389V9.56142H5.29511Z" fill="#2B2B76"/>
</svg>
