<svg width="32" height="32" viewBox="0 0 32 32" fill="none" xmlns="http://www.w3.org/2000/svg">
<path d="M6.00065 21.9999C4.00065 23.6799 3.33398 28.6666 3.33398 28.6666C3.33398 28.6666 8.32065 27.9999 10.0007 25.9999C10.9473 24.8799 10.934 23.1599 9.88065 22.1199C9.36239 21.6253 8.67971 21.3395 7.96362 21.3173C7.24753 21.2952 6.54849 21.5383 6.00065 21.9999Z" stroke="white" stroke-width="2.66667" stroke-linecap="round" stroke-linejoin="round"/>
<path d="M16 19.9999L12 15.9999C12.7095 14.1592 13.6029 12.3947 14.6667 10.7333C16.2202 8.24924 18.3835 6.20399 20.9507 4.79205C23.5178 3.3801 26.4036 2.64842 29.3333 2.66659C29.3333 6.29326 28.2933 12.6666 21.3333 17.3333C19.6492 18.3982 17.8625 19.2916 16 19.9999Z" stroke="white" stroke-width="2.66667" stroke-linecap="round" stroke-linejoin="round"/>
<path d="M12.0007 15.9999H5.33398C5.33398 15.9999 6.06732 11.9599 8.00065 10.6666C10.1607 9.22661 14.6673 10.6666 14.6673 10.6666" stroke="white" stroke-width="2.66667" stroke-linecap="round" stroke-linejoin="round"/>
<path d="M16 19.9999V26.6666C16 26.6666 20.04 25.9333 21.3333 23.9999C22.7733 21.8399 21.3333 17.3333 21.3333 17.3333" stroke="white" stroke-width="2.66667" stroke-linecap="round" stroke-linejoin="round"/>
</svg>
